<svg xmlns="http://www.w3.org/2000/svg" viewBox="0 0 160 160"><path d="M119.805 30.011H40.193A3.19 3.19 0 0037 33.199v46.413a3.19 3.19 0 003.193 3.189h79.613A3.19 3.19 0 00123 79.612V33.199a3.191 3.191 0 00-3.195-3.188zM45.263 63.236h-.227a3.192 3.192 0 01-3.194-3.189v-7.283a3.19 3.19 0 013.194-3.188h.227v13.66zm61.324 15.172H50.219V34.402h56.368v44.006zm8.79-17.856a4.15 4.15 0 01-4.152-4.147 4.148 4.148 0 014.152-4.147 4.15 4.15 0 014.155 4.147 4.15 4.15 0 01-4.155 4.147zM91.595 26H68.403v2.758h23.192V26zM83.537 90.861v-2.973h8.058V85.13H68.404v2.758h8.057v35.246a6.068 6.068 0 00-3.64 5.559V143h14.356v-14.307a6.062 6.062 0 00-3.641-5.557v-27.99h4.803l5.059 1.213v-6.711l-5.059 1.213h-4.802z" fill="#363636"/></svg>