<svg width="0" height="0" class="hidden">
  <symbol xmlns="http://www.w3.org/2000/svg" viewBox="0 0 32 32" id="icon_facebook">
    <path d="M31.997 16c0-8.837-7.162-16-15.998-16C7.163 0 0 7.163 0 16c0 7.984 5.85 14.603 13.499 15.803V20.624H9.437v-4.625H13.5v-3.524c0-4.011 2.389-6.226 6.042-6.226 1.751 0 3.582.312 3.582.312V10.5h-2.016c-1.987 0-2.607 1.233-2.607 2.498V16h4.437l-.709 4.625H18.5v11.179c7.648-1.2 13.499-7.819 13.499-15.804h-.002z"></path>
  </symbol>
  <symbol xmlns="http://www.w3.org/2000/svg" viewBox="0 0 32 32" id="icon_instagram">
    <path d="M21 16a5 5 0 11-10 0c0-.285.03-.563.082-.833H9.333v6.661c0 .464.375.839.839.839H21.83a.838.838 0 00.837-.839v-6.661h-1.749c.052.27.082.548.082.833zm-5 3.333a3.334 3.334 0 10-.001-6.667A3.334 3.334 0 0016 19.333zm4-6.833h1.998a.502.502 0 00.502-.5v-1.998a.502.502 0 00-.502-.502H20a.501.501 0 00-.502.502V12c.002.275.227.5.502.5zM16 0a16 16 0 100 32 16 16 0 000-32zm8.333 22.482a1.857 1.857 0 01-1.851 1.851H9.518a1.857 1.857 0 01-1.851-1.851V9.518c0-1.018.833-1.851 1.851-1.851h12.964c1.018 0 1.851.833 1.851 1.851v12.964z"></path>
  </symbol>
  <symbol xmlns="http://www.w3.org/2000/svg" viewBox="0 0 32 32" id="icon_witter">
    <path d="M16 32c-2.167 0-4.24-.422-6.219-1.266-1.979-.843-3.682-1.979-5.11-3.406-1.426-1.427-2.562-3.13-3.405-5.11A15.697 15.697 0 010 16c0-2.167.422-4.24 1.266-6.219.843-1.979 1.979-3.682 3.406-5.11 1.427-1.426 3.13-2.562 5.11-3.405A15.696 15.696 0 0116 0c2.167 0 4.24.422 6.219 1.266 1.979.843 3.682 1.979 5.11 3.406 1.426 1.427 2.562 3.13 3.405 5.11A15.697 15.697 0 0132 16c0 2.167-.422 4.24-1.266 6.219-.843 1.979-1.979 3.682-3.406 5.11-1.427 1.426-3.13 2.562-5.11 3.405A15.698 15.698 0 0116 32zm9.406-24a5.912 5.912 0 00-.562.344l-.61.406-.578.313L23 9.28C22.23 8.427 21.281 8 20.156 8 17.72 8 16.5 9.02 16.5 11.063v1.843c-3.354-.166-5.927-1.396-7.719-3.687C8.261 9.76 8 10.354 8 11c0 1.375.51 2.417 1.531 3.125-.125 0-.302.01-.531.031-.23.021-.411.021-.547 0A1.566 1.566 0 018 14c0 .958.255 1.755.766 2.39.51.636 1.213 1.047 2.109 1.235-.208.25-.5.375-.875.375-.333 0-.625-.094-.875-.281 0 .812.39 1.442 1.172 1.89.781.448 1.661.683 2.64.703-.374.563-.921.985-1.64 1.266A6.246 6.246 0 019 22c-.292 0-.693-.073-1.203-.219A16.21 16.21 0 007 21.563c.333.666 1.016 1.24 2.047 1.718 1.031.48 2.338.719 3.922.719 1.396 0 2.698-.245 3.906-.734 1.208-.49 2.24-1.141 3.094-1.953a12.776 12.776 0 002.203-2.782 13.08 13.08 0 001.375-3.234C23.849 14.182 24 13.083 24 12c0-.042.125-.13.375-.266.25-.135.542-.317.875-.546.333-.23.583-.47.75-.72-1.125 0-1.875.022-2.25.063.73-.437 1.281-1.281 1.656-2.531z"></path>
  </symbol>
</svg>
